<svg xmlns="http://www.w3.org/2000/svg" viewBox="0 0 182.14 27.37"><defs><style>.cls-1{fill:#e5403f;}.cls-2{fill:#2fc6d1;}</style></defs><g id="Layer_2" data-name="Layer 2"><g id="Layer_1-2" data-name="Layer 1"><path class="cls-1" d="M88.46,9.92C88.39,9,88.29,8,88.27,7c0-1.67,0-3.35,0-5,0-.38.09-.75.11-1.12a3.66,3.66,0,0,1,0-.45L85.13.64a.92.92,0,0,0-.28.09,2,2,0,0,1-1.1.08C83.26.75,82,.7,82,.7l-1.5,1.79c-.2.26-.25.62-.38.76a4.78,4.78,0,0,1-.56.44,5.06,5.06,0,0,0-.61.71c-.34-.3-.69-.61-1-.94A15.75,15.75,0,0,0,74.86.62a5.42,5.42,0,0,0-.58.49c-.31.31-.69,1.15-1.07,1.54s-1.56,1.89-1.56,1.89a3.21,3.21,0,0,0-.05.52,2.25,2.25,0,0,1-.12,1.09,1.91,1.91,0,0,0,0,.59c0,.18,0,.35,0,.53q-.09,1.17-.21,2.34c0,.49-.08,1-.14,1.46s-.15.9-.2,1.34c-.09.64-.15,1.29-.23,1.93a15,15,0,0,0-.23,1.75c0,1.16-.11,2.32-.25,3.47l-.27,2.27c-.06.51-.14,1-.19,1.52a2.92,2.92,0,0,0,0,1.17,3.29,3.29,0,0,1,0,1.08c0,.14,0,.28,0,.42,0,.33,0,.49,0,.49s1.42,0,1.95,0a10.36,10.36,0,0,0,1.11-.08c.12,0,.24,0,.36,0a23.76,23.76,0,0,0,3.48-.07,16.51,16.51,0,0,1,1.14-1.63c.18-.16,1.24-1.35,1.77-1.95a4.55,4.55,0,0,1,1,.73,1.41,1.41,0,0,0,.43.31,8.09,8.09,0,0,1,2.39,1.58,4.87,4.87,0,0,0,1.41.67,1.66,1.66,0,0,1,.32-.43,9.5,9.5,0,0,0,1.18-.88c.33-.36,1.71-2.61,1.71-2.61s.09-.49.12-.8c0-.57.11-.68.14-1.25,0-.9.1-1.8.12-2.71.05-2.32.08-4.64.12-7C88.47,10.24,88.47,10.08,88.46,9.92Z"/><path class="cls-1" d="M141.1,20.37c-.56-1.82-1.15-3.63-1.68-5.46-.61-2.05-1.18-4.12-1.77-6.18-.15-.53-.33-1.05-.5-1.56-.22-.67-.5-1.33-.66-2-.32-1.32-.57-2.66-.85-4a7,7,0,0,0-.2-.82.83.83,0,0,0-.2-.36L132,3.92c-.39.51-.93,1.14-1.29,1.67s-.87,1.25-1.19,1.8l0,0c-.21-.31-.33-.49-.58-.84A8.75,8.75,0,0,0,127.81,5a.93.93,0,0,1-.21-.36,1.8,1.8,0,0,0-.54-.78,2.94,2.94,0,0,1-.73-1,2.15,2.15,0,0,0-.34-.57,4.34,4.34,0,0,1-.81-1,2.71,2.71,0,0,0-.55-.49S123,3,122.7,3.29s-1.28,1.33-1.28,1.33l-.2.47c-.23.54-.35.79-.57,1.33a2.49,2.49,0,0,0-.12.47c-.18,1.05-.33,2.11-.56,3.16a16.54,16.54,0,0,0-.3,3.14,26.47,26.47,0,0,1-.2,3.21c-.18,1.38-.5,2.75-.72,4.13s-.83,2.46-1,3.91a8,8,0,0,1-.21.81l-.11.43s1.3,0,1.58-.05a2.37,2.37,0,0,1,.84,0c.2,0,.69-.07.9,0s.1.09.26.11a6.46,6.46,0,0,0,.88,0c.25,0,.51,0,.76-.05a1.58,1.58,0,0,0,.37-.1s.39-.41.83-.83A17.47,17.47,0,0,0,125,23.36c.25-.3,1.22-1.72,1.22-1.72.06-.21.1-.42.14-.63.28.67.55,1.36.84,2.09,0,0,.73-1,1.09-1.47.21-.27,1-1.11,1.49-1.74a4.42,4.42,0,0,0,.68,1.17.39.39,0,0,1,.06.11c.42.84.83,1.7,1.27,2.53.35.66.85,1.59,1.22,2.23l.45-.1c.32-.08.65-.1,1-.16s.7-.1,1-.19a6.89,6.89,0,0,1,1.43-.32,3.71,3.71,0,0,0,.91-.24l.24-.07a13.52,13.52,0,0,0,1.12-1.14c.34-.44,2.09-2.78,2.09-2.78S141.13,20.46,141.1,20.37ZM132.24,4.29h0v0Z"/><path class="cls-1" d="M104.17,9.2a7.48,7.48,0,0,0-.16-1,9.53,9.53,0,0,1-.2-1,5.42,5.42,0,0,0-.41-1.41c-.09-.3-.27-.57-.34-.87a2,2,0,0,0-.74-1.27,2.28,2.28,0,0,1-.3-.38c-.27-.35-.51-.72-.8-1.06A2.79,2.79,0,0,0,99,1a1.68,1.68,0,0,1-.44-.07C97.8.78,97.08.63,96.34.54A3.4,3.4,0,0,0,95.15.6,21.42,21.42,0,0,0,93,1.24c-.32.11-.59.32-.9.45a1,1,0,0,0-.46.35h0s-1.83,2.14-2,2.49a8.35,8.35,0,0,1-1.13,1.33,1,1,0,0,0-.24.39c-.23.57-.46,1.13-.71,1.7a2.44,2.44,0,0,0-.32.94c0,1.32,0,2.64,0,4s-.09,2.63-.13,4c0,.37,0,.75,0,1.12h0c0,.91,0,1.81,0,2.72a2.71,2.71,0,0,0,.3,1.25,6.18,6.18,0,0,1,.23.73c0,.15.08.3.13.45a4.53,4.53,0,0,0,1,1.48,3.78,3.78,0,0,0,2,1.34,6.28,6.28,0,0,1,1,.33,4.46,4.46,0,0,0,.83.27c.72.08,1.44.13,2.16.14a10.15,10.15,0,0,0,1.46-.12A1.69,1.69,0,0,0,97.34,26c.14-.15.27-.32.4-.48v0c.84-.78,1.59-1.55,1.83-1.83s1.57-2.33,1.57-2.33h0a10.41,10.41,0,0,0,1.75-3.11,15.93,15.93,0,0,0,.91-4.2l0-.23a13,13,0,0,0,.35-3.34C104.16,10.07,104.2,9.63,104.17,9.2Z"/><path class="cls-1" d="M120.73,7.6c0-.2-.1-.39-.09-.58a8.84,8.84,0,0,0-.35-2.56,3.77,3.77,0,0,0-.18-.68,4.24,4.24,0,0,0-2.22-2.17,4.9,4.9,0,0,1-.78-.42A1.88,1.88,0,0,0,116,.86a8.44,8.44,0,0,1-1.59,0,15.2,15.2,0,0,0-2.23-.1c-.43,0-.86-.08-1.29-.1a4.34,4.34,0,0,0-1.35,0,6,6,0,0,1-1.93.18C107.19.86,106,1,106,1a10.83,10.83,0,0,0-1.06,1.33c0,.18-.43.59-.64.72a3.61,3.61,0,0,0-.54.61c-.17.21-1,1.27-1,1.27a3.5,3.5,0,0,0,0,.74,4.46,4.46,0,0,1,.09.81c0,1.42.06,2.83-.09,4.25-.07.69.09,1.41.08,2.11,0,3,.12,6-.1,9,0,.45,0,.91,0,1.36,0,.61-.1,2.61-.1,2.61a2.15,2.15,0,0,1,.4,0,7.69,7.69,0,0,0,.83,0,6.69,6.69,0,0,1,2.14,0,10.77,10.77,0,0,0,2.15.16,6.08,6.08,0,0,1,.92-1.21,4,4,0,0,0,.55-.58c.3.45.6.89.91,1.33.11.16.21.34.21.34a16.51,16.51,0,0,0,1.88-.11,16.67,16.67,0,0,0,2.55-.37,1.09,1.09,0,0,1,.18,0,5.48,5.48,0,0,1,.7,0,11.76,11.76,0,0,1,.82-1.14c.2-.16,1.35-1.71,1.6-1.92s.79-.86.79-.86-.23-.51-.33-.69a3.19,3.19,0,0,0-.35-.47,1.89,1.89,0,0,1-.27-.38,2.22,2.22,0,0,0-.56-.82,8.78,8.78,0,0,1-.54-.77c-.1-.14-.19-.29-.31-.43s-.56-.66-.9-1c.42-.48.74-.89,1.1-1.23a11.91,11.91,0,0,0,2.51-3.21h0a5.29,5.29,0,0,0,.76-1.63A9.75,9.75,0,0,0,120.73,7.6Z"/><path class="cls-1" d="M155.86,10.56a.83.83,0,0,0-.06-.35c-.26-.62-.55-1.23-.8-1.86a9,9,0,0,1-.9-2.4c0-.25-.26-.48-.43-.72a3.41,3.41,0,0,0-.36-.41c-.53-.55-1.05-1.11-1.6-1.65A7.51,7.51,0,0,0,149.52,2a8.58,8.58,0,0,0-1.34-.5A5.66,5.66,0,0,0,146,1.36a2.91,2.91,0,0,0-1.85.83s-1.42,1.4-1.78,1.73A18.52,18.52,0,0,0,141,6.11a7,7,0,0,0-.67.94c-.23.33-.44.67-.66,1a6,6,0,0,0-.51.83,17.2,17.2,0,0,0-1,2.62c-.42,2.89.66,4.65.69,5.85,0,.63,0,1.26,0,1.89h0V21.5c0,.75.37,1.46.31,2.21,0,.06,0,.11.07.17A6.18,6.18,0,0,0,141,26a3.28,3.28,0,0,0,2.25.69c.64,0,1.28,0,1.92,0a1.86,1.86,0,0,0,.71-.12,9.23,9.23,0,0,0,3.24-2.09c.22-.24.43-.49.63-.74h0c.71-.65,1.37-1.11,1.84-1.61a22.9,22.9,0,0,0,1.66-2.67h0a9.55,9.55,0,0,0,1.07-1.68c.33-.72.59-1.48,1-2.18a5.16,5.16,0,0,0,.57-2.11C155.92,12.49,155.86,11.53,155.86,10.56Z"/><path class="cls-1" d="M168.4,1.27s-1.21.11-1.64.12h-.82c-.37,0-1.38-.13-1.38-.13a9.54,9.54,0,0,0-.93,1c-.18.31-.72.67-1,1.08-.14.19-.42.58-.68,1,0-.77.06-1.54.07-2.31a1.73,1.73,0,0,0,0-.54s-2.94.06-4.18.06h-.57s-.82,1.21-1.05,1.44-.92,1.28-1.15,1.62a5.49,5.49,0,0,1-1,.86,1.5,1.5,0,0,0,0,.31,8.9,8.9,0,0,1-.22,1.92,16.63,16.63,0,0,0-.14,1.88,24.88,24.88,0,0,0,.12,3.11c0,.33.05.67.1,1s.22.76.25,1.15c.1,1,.17,1.95.21,2.93,0,.81,0,1.62,0,2.43h0c0,.88,0,1.77,0,2.65a3.22,3.22,0,0,0,1.25,2.67,4.82,4.82,0,0,0,4.81.8A19,19,0,0,0,163,24.75a.6.6,0,0,0,.21-.21c.26-.34.51-.69.75-1h0l2.17-2.3a3.07,3.07,0,0,0,.82-1.33h0l.47-.65a1.36,1.36,0,0,0,.14-.33,5.59,5.59,0,0,1,.26-.72,4.75,4.75,0,0,0,.44-2.28c0-.81-.07-1.61-.09-2.41,0-1,0-2,0-3,0-2.32,0-4.64.13-7,0-.45.07-.9.1-1.35,0-.17,0-.35,0-.53S168.4,1.27,168.4,1.27Z"/><path class="cls-1" d="M63.17,6.24c-.06-.54-.08-1.09-.18-1.63a9.06,9.06,0,0,1-.42-2.53c0-.29,0-.84,0-.84s-1,.09-1.4.09a17.28,17.28,0,0,0-2.87.33,17.82,17.82,0,0,1-3.79.42C53.36,2,52.22,2,51.08,2c-.51,0-1,0-1.54,0H47.3s-.43.59-.53.75a4.32,4.32,0,0,1-.74.82c-.28.2-.59,1-.87,1.24s-1.07,1.11-1.07,1.11a5.28,5.28,0,0,0,0,.72c.11,1.13.11,1.13.16,1.55a3.24,3.24,0,0,1,.06.4,8.39,8.39,0,0,0,.26,1.61,4.87,4.87,0,0,0,.17,1h.93c.87,0,3.31.1,3.31.1s0,.19,0,.85-.09,1.41-.1,2.12c0,1.44,0,2.88,0,4.32h0c0,1.17,0,2.35,0,3.52s.18,1.57.2,2.36a8.15,8.15,0,0,0,.11,1.81c.68-.07,2.8-.12,3.48-.1a10,10,0,0,1,2.12,0,3.12,3.12,0,0,0,1.31-.26,8,8,0,0,1,1.25-1.74c.22-.33.3-.66.52-.8S59.3,22,59.3,22a28.43,28.43,0,0,0-.06-3.4c0-.06,0-.64,0-.7a17.59,17.59,0,0,0,0-2.05c-.11-1.32-.12-2.66-.13-4,0-.07,0-.14,0-.21l.39,0,.62,0s.76-.57.9-1,2.31-2.94,2.31-2.94S63.21,6.58,63.17,6.24Z"/><path class="cls-1" d="M30.88,1.08s-1.06,0-1.48.08c-.9.11-2.86.23-2.86.23s-.6,1.13-.78,1.41a10.46,10.46,0,0,1-.87,1.3,5.79,5.79,0,0,1-.59.52v0c0-1,.06-2,.1-2.95a2.56,2.56,0,0,1,.05-.48S22.11,1,21.16.86L20,.69,18.42,2.77c-.36.49-1.65,1.84-1.65,1.84s0,.12-.05.37a5.58,5.58,0,0,0-.11.82c0,1.94.06,3.89.09,5.84,0,1.12,0,2.25,0,3.37a8.06,8.06,0,0,0,0,1.3,19.08,19.08,0,0,1,.07,2.83c0,.35-.07.7-.07,1.05,0,.63.06,1.26.1,1.89a2.27,2.27,0,0,0,.12.63A10.5,10.5,0,0,0,17.48,24a4.12,4.12,0,0,0,1.69,2,1.77,1.77,0,0,0,1,.36.82.82,0,0,1,.34.09,1.69,1.69,0,0,0,1.21.06A3.55,3.55,0,0,0,22.85,26a14.06,14.06,0,0,0,1.64-1,4,4,0,0,0,.36-.35c.92-.94,1.38-1.53,1.6-1.77s1.16-1.52,1.61-2.16h0a3.13,3.13,0,0,0,.57-.9c.11-.29.27-.57.41-.85l.31-.63a16,16,0,0,0,.82-3.18,10.9,10.9,0,0,0,.25-2.8,14.52,14.52,0,0,1,.1-1.46c.05-.79.09-1.58.12-2.36,0-1.34.08-2.68.13-4,0-.49.07-1,.1-1.47a3.65,3.65,0,0,0,0-.47c0-.49,0-.68,0-1.17A3.38,3.38,0,0,0,30.88,1.08Z"/><path class="cls-1" d="M71.44.87A38,38,0,0,0,66.87,1a1.91,1.91,0,0,1-.47,0c-.17,0-1.29-.05-1.29-.05a11.09,11.09,0,0,0-1,1,8.47,8.47,0,0,1-.85.77c-.26.26-1.37,2.17-1.37,2.17s0,.2,0,.77,0,1.22,0,1.83a9.46,9.46,0,0,0,0,2,8.69,8.69,0,0,1,0,1.53c0,.8-.14,1.6-.19,2.4s-.08,1.65-.12,2.47c0,.57-.1,1.14-.12,1.71-.05,1.55-.09,3.1-.14,4.65,0,.08,0,.16,0,.24l-.21,2.52c0,.12,0,1.31,0,1.31a7.92,7.92,0,0,0,.95.06c1.47,0,4.49.11,4.71.12a2.56,2.56,0,0,0,.7-.05,8.55,8.55,0,0,1,1.07-1.91,7,7,0,0,0,.71-.94,15.65,15.65,0,0,1,1.43-1.07,10.23,10.23,0,0,0-.1-2.07,3.67,3.67,0,0,1-.13-.88c-.06-1.33-.09-2.67-.14-4,0-.49-.07-1-.09-1.47s0-.87,0-1.3c0-.84.14-1.68.2-2.52s.08-1.41.14-2.11c0-.51.13-1,.21-1.52A12,12,0,0,0,71,5a10.88,10.88,0,0,1,.3-2,6.82,6.82,0,0,0,.18-1.1Z"/><path class="cls-1" d="M18,11.45c0-1.25,0-2.51,0-3.76,0-.34-.06-.68-.07-1a15.85,15.85,0,0,1,0-2.18,20.18,20.18,0,0,0,.17-3A4,4,0,0,0,18,1c0-.27,0-.46,0-.46S16,.78,15.25.79,14,1,13.32,1c-.89,0-3,.21-3,.21a6.26,6.26,0,0,1-1,1.33c-.46.41-.77,1-1.35,1.58a9.37,9.37,0,0,0-.9,1s0,.16,0,.39c0,.68,0,1.37,0,2.06,0,.42.08.83.11,1.25.08.92.15,1.85.24,2.76,0,.33.07.66.11,1l-4.32,0S1.19,15.07.06,16.53a1.75,1.75,0,0,0,0,.59v.19a37.09,37.09,0,0,0,.27,4.94,1.64,1.64,0,0,0,.33,1.07A5.8,5.8,0,0,0,2,24.75a1.31,1.31,0,0,1,.4.44A3.43,3.43,0,0,0,4,26.36a24,24,0,0,0,2.34.82,3.16,3.16,0,0,0,.74.16,12,12,0,0,0,3.22-.29,3,3,0,0,0,1.8-.95c.39-.46.65-.75.85-1h0s1.26-1.28,1.56-1.65,1.42-2,1.42-2h0a8,8,0,0,0,1.26-2.1,2.39,2.39,0,0,1,.13-.28,4.19,4.19,0,0,0,.48-2c0-.52.05-1,.1-1.57,0-.32.09-.63.12-1s.07-.84.1-1.26c0-.12,0-.24,0-.36C18,12.41,18,11.93,18,11.45Z"/><path class="cls-1" d="M180.88,13.66c-.25-.31-.49-.64-.72-1a2.32,2.32,0,0,0-.57-.51c-.45-.33-.6-.53-1.05-.9l.07-.09a2.38,2.38,0,0,1,.32-.38l2.17-2.66.48-.58.56-.68c-.37-.74-.48-1.55-.83-2.2a28.19,28.19,0,0,0-1.64-2.54,3.08,3.08,0,0,0-2-1.34,4.77,4.77,0,0,1-.51-.13l-.76-.17a3.8,3.8,0,0,0-.75.12c-.51.16-1,.35-1.5.54a4.26,4.26,0,0,0-.92.49h0l-.08.07a2.39,2.39,0,0,0-.23.22c-.42.39-1.15,1.08-1.43,1.4a24.06,24.06,0,0,0-1.79,2.53h0a1.33,1.33,0,0,0-.23.3,20.31,20.31,0,0,1-1.7,2.19,2.78,2.78,0,0,0-.63,1.67c0,.51,0,1,0,1.53a7.36,7.36,0,0,0,.19,1.26c.13.47.32.92.48,1.39a2.4,2.4,0,0,0,.7,1c.47.4.95.79,1.4,1.22a2.74,2.74,0,0,0,.48.36l-.75.92c-.12.13-.59.69-.59.69l-.28.47a4.12,4.12,0,0,1-.53.75,15.65,15.65,0,0,0-1.81,2l-.59.69.26.35c.35.47.69.94,1,1.42a3.93,3.93,0,0,0,2,1.64c.68.23,1.34.55,2,.82a1.87,1.87,0,0,0,.35,0,7.9,7.9,0,0,0,1.46,0,19.16,19.16,0,0,0,3-1.44s.08-.09.12-.13a3.94,3.94,0,0,1,.45-.38,3.58,3.58,0,0,0,.86-.73v0a28.92,28.92,0,0,0,2.71-2.72,7,7,0,0,0,1-1.86h0a8.84,8.84,0,0,0,.56-1,2.08,2.08,0,0,0,.13-.71c0-.57,0-1.15,0-1.72A3.79,3.79,0,0,0,180.88,13.66Z"/><path class="cls-1" d="M46.26,6.87q0-.5-.12-1a3.65,3.65,0,0,0-1-2.32,17.79,17.79,0,0,0-2-1.74,6.6,6.6,0,0,0-1.71-1,2.44,2.44,0,0,0-1-.22h-1a5,5,0,0,0-2,.21.47.47,0,0,1-.17,0,4.42,4.42,0,0,0-2.26,1h0L35,2l-.3.27a.76.76,0,0,0-.11.14c-.44.44-1,1-1.21,1.26a17,17,0,0,0-2,2.64,1,1,0,0,0-.17.27A11.54,11.54,0,0,0,30.35,10,5.49,5.49,0,0,0,31,13.63a5,5,0,0,0,.81,1.06,6.59,6.59,0,0,0,1.38,1q-.29.21-.6.48l-.62.46s-1.81,2-2,2.37a17.56,17.56,0,0,1-1.21,1.55s1.1,2.52,1.52,3.16a6,6,0,0,0,.82,1.15A11.15,11.15,0,0,0,33,26.21a3.9,3.9,0,0,0,1.55.52A5.22,5.22,0,0,0,37,26.57a1.77,1.77,0,0,1,.41-.05,1.34,1.34,0,0,0,.4-.07c.52-.27,1.05-.54,1.55-.84.23-.14.38-.42.61-.55a6.59,6.59,0,0,0,1.54-1.44,18.64,18.64,0,0,0,2.13-2.05A16.26,16.26,0,0,0,45,19.41h0a3.62,3.62,0,0,0,.41-.61A6.46,6.46,0,0,0,46,15.66a6.77,6.77,0,0,0-.92-3.18,6.54,6.54,0,0,0-1.65-1.89l2.79-3.41A1.19,1.19,0,0,0,46.26,6.87Z"/><path class="cls-2" d="M82.1,4.68c0-.59,0-1.18,0-1.77s-.07-1-.1-1.53c0-.12,0-.24,0-.35V.7s1.27.05,1.76.11a2,2,0,0,0,1.1-.08.92.92,0,0,1,.28-.09L88.4.45a3.66,3.66,0,0,0,0,.45c0,.37-.1.74-.11,1.12,0,1.67,0,3.35,0,5,0,1,.12,1.92.19,2.88,0,.16,0,.32,0,.47,0,2.33-.07,4.65-.12,7,0,.91-.07,1.81-.12,2.71,0,.57-.09.68-.14,1.25,0,.31-.12.8-.12.8a4.71,4.71,0,0,1-1.41-.68,8.06,8.06,0,0,0-2.39-1.57,1.5,1.5,0,0,1-.43-.32,4.2,4.2,0,0,0-1.89-1c-.37-.08-.33-.27-.58-.58a3.1,3.1,0,0,0-.49-.38c-.15-.12-.34-.17-.44-.36s-.28-.27-.28-.27,0,.3,0,.36a1,1,0,0,0,0,.3c0,.29,0,.59,0,.88,0,1.1-.06,2.2-.1,3.3a3.2,3.2,0,0,1-.07.65,23.76,23.76,0,0,1-3.48.07,2.19,2.19,0,0,0-.36,0,10.36,10.36,0,0,1-1.11.08c-.53,0-2,0-2,0s0-.16,0-.5c0-.13,0-.27,0-.41a3.35,3.35,0,0,0,0-1.09,2.88,2.88,0,0,1,.05-1.16c0-.51.12-1,.19-1.52l.27-2.28c.14-1.15.22-2.3.25-3.46a14.7,14.7,0,0,1,.23-1.75c.08-.64.14-1.29.22-1.93.06-.45.15-.89.21-1.34s.1-1,.14-1.46q.12-1.17.21-2.34c0-.18,0-.36,0-.53a1.91,1.91,0,0,1,0-.59,2.25,2.25,0,0,0,.12-1.09,3.21,3.21,0,0,1,0-.52,15.75,15.75,0,0,1,3.07,2.84c.6.62,1.29,1.15,1.93,1.73.28.26.53.53.8.79l1.08,1.08.36.29a2.5,2.5,0,0,1,0-.43,1.85,1.85,0,0,0,0-.41V4.68Z"/><path class="cls-2" d="M130.38,19.17c-.4-1-.75-2-1.17-2.85a9.76,9.76,0,0,0-1-2A2.67,2.67,0,0,0,128,14a2,2,0,0,0-.1.42c-.1.41-.18.83-.27,1.25l-.54,2.55c-.18.93-.47,1.4-.66,2.33-.08.38-.13.75-.23,1.12a1.66,1.66,0,0,1-.37.09,6.48,6.48,0,0,1-.77.06,6.31,6.31,0,0,1-.87,0c-.16,0-.13-.09-.26-.11s-.7.05-.9,0a2,2,0,0,0-.84,0c-.28.05-1.58.05-1.58.05l.11-.43c.06-.27.17-.54.21-.82.21-1.44.82-2.47,1-3.91s.54-2.74.72-4.12a26.47,26.47,0,0,0,.2-3.21,16.54,16.54,0,0,1,.3-3.14c.22-1,.38-2.11.56-3.17a2.39,2.39,0,0,1,.12-.46c.22-.54.34-.8.57-1.34l.2-.46a2.71,2.71,0,0,1,.55.49,4.34,4.34,0,0,0,.81,1,2.15,2.15,0,0,1,.34.57,2.94,2.94,0,0,0,.73,1,1.8,1.8,0,0,1,.54.78.93.93,0,0,0,.21.36A8.75,8.75,0,0,1,129,6.58c.29.41.39.57.68,1,.09.13.27.61.38.76.09-.13.36-.69.44-.83.55-.88,1-1.87,1.52-2.76.13-.21.24-.42.37-.62a3.1,3.1,0,0,1,.42-.66A9.29,9.29,0,0,0,134,1.67c.36-.53.9-1.16,1.29-1.67a.83.83,0,0,1,.2.36,7,7,0,0,1,.2.82c.28,1.32.53,2.66.85,4,.16.68.44,1.34.66,2,.17.51.35,1,.5,1.56.59,2.06,1.16,4.13,1.77,6.18.53,1.83,1.11,3.64,1.68,5.46,0,.09.14.56.14.56L141,21a3.74,3.74,0,0,1-.91.25,6.31,6.31,0,0,0-1.43.32c-.34.09-.69.13-1,.19a8,8,0,0,0-1,.16l-.45.1c-.37-.65-.87-1.58-1.22-2.23-.44-.83-.85-1.69-1.27-2.54a.53.53,0,0,0-.06-.1,6.45,6.45,0,0,1-1-2.16c-.15-.44-.37-.85-.56-1.27a2.75,2.75,0,0,0-.2-.38,1.07,1.07,0,0,0-.14.39c-.19.7-.38,1.41-.54,2.12-.23,1-.43,2-.65,3A2.41,2.41,0,0,1,130.38,19.17Z"/><path class="cls-2" d="M90.37,14c0-.38,0-.75,0-1.12,0-1.32.1-2.63.13-4s0-2.64,0-4A2.33,2.33,0,0,1,90.82,4c.25-.57.48-1.14.71-1.71a1,1,0,0,1,.61-.63c.31-.13.58-.34.9-.45A21.42,21.42,0,0,1,95.15.6,3.4,3.4,0,0,1,96.34.54c.74.09,1.46.24,2.19.37A1.68,1.68,0,0,0,99,1a2.79,2.79,0,0,1,2.25,1.15c.29.34.53.71.8,1.06a2.28,2.28,0,0,0,.3.38,2,2,0,0,1,.74,1.27c.07.3.25.57.34.87a5.42,5.42,0,0,1,.41,1.41,9.53,9.53,0,0,0,.2,1,7.48,7.48,0,0,1,.16,1c0,.43,0,.87,0,1.3a13,13,0,0,1-.35,3.34l0,.23a15.93,15.93,0,0,1-.91,4.2,10.68,10.68,0,0,1-2.35,3.81,1.74,1.74,0,0,1-1.05.51,10.15,10.15,0,0,1-1.46.12c-.72,0-1.44-.06-2.16-.14a3.87,3.87,0,0,1-.83-.28,6.24,6.24,0,0,0-1-.32,3.78,3.78,0,0,1-2-1.34,4.47,4.47,0,0,1-1-1.49c0-.14-.09-.29-.13-.44a5.65,5.65,0,0,0-.23-.73,2.74,2.74,0,0,1-.3-1.25c0-.91,0-1.82,0-2.72Z"/><path class="cls-2" d="M111.4,21.44a4.33,4.33,0,0,0,0,.58,10.77,10.77,0,0,1-2.15-.16,6.69,6.69,0,0,0-2.14,0,7.73,7.73,0,0,1-.83,0l-.4,0s.07-2,.1-2.6,0-.91,0-1.36c.21-3,.08-6,.1-9,0-.71-.15-1.42-.08-2.12.15-1.41,0-2.83.09-4.24a4.37,4.37,0,0,0-.09-.81A3.59,3.59,0,0,1,106,1s1.2-.12,1.62-.12a6,6,0,0,0,1.93-.18,4.34,4.34,0,0,1,1.35,0c.43,0,.86.08,1.29.1a15.2,15.2,0,0,1,2.23.1,8.44,8.44,0,0,0,1.59,0,1.88,1.88,0,0,1,1.11.33,4.9,4.9,0,0,0,.78.42,4.24,4.24,0,0,1,2.22,2.17,3.77,3.77,0,0,1,.18.68A8.84,8.84,0,0,1,120.64,7c0,.19.08.38.09.58a9.75,9.75,0,0,1-.34,3.09,5.34,5.34,0,0,1-1.61,2.62c-.37.34-.69.74-1.07,1.08a5.45,5.45,0,0,1-2,1.11,4.86,4.86,0,0,0-.57.22c.46.56,1.32,1.54,1.78,2.09.12.14.21.29.31.43a8.78,8.78,0,0,0,.54.77,2.22,2.22,0,0,1,.56.82,1.89,1.89,0,0,0,.27.38,3.19,3.19,0,0,1,.35.47c.1.18.33.69.33.69s-.5,0-.7,0-.13,0-.18,0a15.69,15.69,0,0,1-2.55.38,16.51,16.51,0,0,1-1.88.11,3.17,3.17,0,0,0-.21-.34c-.47-.68-.92-1.37-1.41-2a12.9,12.9,0,0,0-.92-1.18c0,.32,0,1.12,0,1.46S111.41,21.1,111.4,21.44Zm.71-11.81c0,.41,0,.53,0,.53s1.33,0,1.78,0a.76.76,0,0,0,.3,0A9.87,9.87,0,0,0,116,9.85c.51-.24,1.05-.43,1.57-.64a.31.31,0,0,0,.09-.07A1.92,1.92,0,0,0,118.24,7c0-.19-.3-.72-.49-.77-.48-.14-.66-.4-1.19-.46a15.84,15.84,0,0,1-1.66-.36,2.91,2.91,0,0,0-.58-.09,5.8,5.8,0,0,0-1.61.1,1.82,1.82,0,0,1-.46,0s0,.3,0,.43C112.19,6.89,112.1,9.4,112.11,9.63Z"/><path class="cls-2" d="M142.05,15.33c0-.63,0-1.26,0-1.89,0-1.2-1.12-3-.69-5.85a17.31,17.31,0,0,1,1-2.63,5.87,5.87,0,0,1,.51-.82c.22-.34.43-.68.66-1a7.55,7.55,0,0,1,.67-.93A2.91,2.91,0,0,1,146,1.36a5.66,5.66,0,0,1,2.17.11,8.58,8.58,0,0,1,1.34.5,7.51,7.51,0,0,1,2.19,1.2c.55.54,1.07,1.1,1.6,1.65a3.41,3.41,0,0,1,.36.41c.17.24.41.47.43.72a9,9,0,0,0,.9,2.4c.25.63.54,1.24.8,1.86a.83.83,0,0,1,.06.35c0,1,.06,1.93,0,2.89a5.16,5.16,0,0,1-.57,2.11c-.38.7-.64,1.46-1,2.18a12.07,12.07,0,0,1-2,2.78,9.23,9.23,0,0,1-3.24,2.09,2.08,2.08,0,0,1-.71.12c-.64,0-1.28,0-1.92,0A3.19,3.19,0,0,1,144.2,22,6.06,6.06,0,0,1,142.43,20c0-.06-.08-.12-.07-.17.06-.76-.3-1.46-.31-2.21V15.33Z"/><path class="cls-2" d="M39.52.62h1a2.44,2.44,0,0,1,1,.22,6.6,6.6,0,0,1,1.71,1,17.79,17.79,0,0,1,2,1.74,3.65,3.65,0,0,1,1,2.32q.07.5.12,1a1.19,1.19,0,0,1,0,.31l-2.1.56c-.58.17-2.23.71-2.23.71l-.18-.51a9.24,9.24,0,0,1-.58-1.85,2.18,2.18,0,0,0-.81-1.51.9.9,0,0,0-1.42.64,6.21,6.21,0,0,0,.21,2.1,3.18,3.18,0,0,0,.41.66c.56.46.85.5,1.42.94s1.14.76,1.72,1.13a6.87,6.87,0,0,1,2.42,2.43A6.77,6.77,0,0,1,46,15.66a6.46,6.46,0,0,1-.65,3.14,3.82,3.82,0,0,1-.65.9,6.59,6.59,0,0,1-1.54,1.44c-.23.13-.38.4-.61.55-.5.3-1,.57-1.55.84a1.34,1.34,0,0,1-.4.07,1.36,1.36,0,0,0-.41,0,5.22,5.22,0,0,1-2.51.16,3.74,3.74,0,0,1-1.55-.51,11.21,11.21,0,0,1-1.85-1.37,5.62,5.62,0,0,1-.82-1.14c-.43-.64-1.52-3.16-1.52-3.16l.62-.46a8.34,8.34,0,0,1,3-1.74,6.86,6.86,0,0,0,.91-.64,1.36,1.36,0,0,0,.16.3.37.37,0,0,1,0,.11,9.18,9.18,0,0,0,1.11,2.07,5,5,0,0,0,1,1.36c.37.17.52.15.75-.18.53-.77.23-2.3-.2-3.12a3.93,3.93,0,0,0-.75-1.12,3.85,3.85,0,0,0-1.28-1A6.79,6.79,0,0,1,35,10.77a5,5,0,0,1-.81-1.06,5.49,5.49,0,0,1-.66-3.64,11.54,11.54,0,0,1,.85-3.41,1.27,1.27,0,0,1,.26-.39A4.6,4.6,0,0,1,37.38.85a.47.47,0,0,0,.17,0A5,5,0,0,1,39.52.62Z"/><path class="cls-2" d="M10.93,14.71c0-.93,0-1.86,0-2.79,0-.42.06-.84.06-1.26a9.85,9.85,0,0,0-.1-1.08c-.07-.64-.15-1.28-.21-1.92-.09-.92-.16-1.84-.24-2.76,0-.42-.1-.84-.11-1.26,0-.68,0-1.37,0-2.06,0-.22,0-.39,0-.39s2.1-.22,3-.21C14,1,14.6.8,15.25.79S18,.54,18,.54,18,.73,18,1a4,4,0,0,1,.08.48,20.18,20.18,0,0,1-.17,3,15.85,15.85,0,0,0,0,2.18c0,.34.07.68.07,1,0,1.25,0,2.51,0,3.76,0,.48.05,1,.08,1.45,0,.12,0,.24,0,.36,0,.42-.06.84-.1,1.26s-.1.63-.12,1c-.05.52-.1,1-.1,1.57a4.19,4.19,0,0,1-.48,2,2.39,2.39,0,0,0-.13.28,8.5,8.5,0,0,1-1.88,2.82,2.93,2.93,0,0,1-1.8.95,11.62,11.62,0,0,1-3.22.3,3.76,3.76,0,0,1-.74-.16,24.07,24.07,0,0,1-2.34-.83,3.36,3.36,0,0,1-1.53-1.16,1.31,1.31,0,0,0-.4-.44A5.8,5.8,0,0,1,3.82,19.4a1.64,1.64,0,0,1-.33-1.07,37.24,37.24,0,0,1-.27-4.95V13.2a1.84,1.84,0,0,1,0-.6c1.56,0,4,0,5.55,0,0,.13,0,.76,0,1.23,0,.94.08,1.22.15,2.16,0,.62.14,1.24.22,1.86a1.75,1.75,0,0,0,.38.74c.22.32.53.18.8.22a.27.27,0,0,0,.23-.14,2.05,2.05,0,0,0,.29-1.08c0-.95,0-1.9,0-2.85Z"/><path class="cls-2" d="M157.53,16.27c0-.8,0-1.61,0-2.42,0-1-.11-2-.21-2.93,0-.39-.18-.76-.25-1.15a8.1,8.1,0,0,1-.1-1,25,25,0,0,1-.12-3.12A16.63,16.63,0,0,1,157,3.79a8.92,8.92,0,0,0,.22-1.93,1.43,1.43,0,0,1,0-.3h.57C159,1.56,162,1.5,162,1.5A1.73,1.73,0,0,1,162,2c0,.8-.05,1.61-.07,2.41,0,.08,0,.16,0,.24,0,1.38-.07,2.75-.12,4.13,0,.35-.07.7-.09,1a3.7,3.7,0,0,0,0,.88,16.43,16.43,0,0,1,.08,2.89c0,.58-.07,1.17-.11,1.76a1.52,1.52,0,0,0,.34,1c.16.21.32.21.5,0a1.4,1.4,0,0,0,.32-1.21c0-.29-.06-.59-.08-.88a10.65,10.65,0,0,1,.26-3,3.94,3.94,0,0,0,.09-.76c0-1.36,0-2.72,0-4.08a3.76,3.76,0,0,1,.37-1.7A13.24,13.24,0,0,0,164.13,3a13.2,13.2,0,0,0,.37-1.37,2,2,0,0,0,.06-.34s1,.12,1.38.13h.82c.43,0,1.64-.12,1.64-.12s0,.19,0,.43,0,.36,0,.53c0,.45-.06.9-.1,1.35-.16,2.32-.13,4.64-.13,7,0,1,0,2,0,3,0,.8.12,1.6.09,2.41a4.75,4.75,0,0,1-.44,2.28,5.59,5.59,0,0,0-.26.72,1.36,1.36,0,0,1-.14.33c-.32.46-.66.92-1,1.38a.7.7,0,0,1-.21.21,20.06,20.06,0,0,1-2.61,1.57,4.83,4.83,0,0,1-4.81-.81,3.2,3.2,0,0,1-1.25-2.66c0-.88,0-1.77,0-2.66Z"/><path class="cls-2" d="M52.09,14.65c0-1.44,0-2.88,0-4.32,0-.7.08-1.41.1-2.12s0-.84,0-.84-2.44-.14-3.31-.1c-.09,0-.93,0-.93,0a4.71,4.71,0,0,1-.17-1,8.53,8.53,0,0,1-.26-1.61,2.76,2.76,0,0,0-.06-.4c-.05-.43-.05-.43-.16-1.55a5.28,5.28,0,0,1,0-.72h2.24c.51,0,1,0,1.54,0,1.14,0,2.28.07,3.41.12a17.82,17.82,0,0,0,3.79-.42,17.28,17.28,0,0,1,2.87-.33c.35,0,1.4-.09,1.4-.09s0,.55,0,.84A9.06,9.06,0,0,0,63,4.61c.1.54.12,1.09.18,1.63,0,.34.11,1.38.11,1.38l-.62,0-2,.11-1.48.15,0,.49a2.08,2.08,0,0,0,0,.25c0,1-.1,2.1-.1,3.15,0,1.34,0,2.68.13,4a17.59,17.59,0,0,1,0,2.05c0,.06,0,.64,0,.7A28.43,28.43,0,0,1,59.3,22a3.12,3.12,0,0,1-1.31.26,10,10,0,0,0-2.12,0c-.68,0-2.8,0-3.48.1a8.29,8.29,0,0,1-.11-1.81c0-.8-.23-1.25-.2-2.36s0-2.35,0-3.53Z"/><path class="cls-2" d="M26.5,1.74a1.11,1.11,0,0,1,0-.35s2-.12,2.86-.23c.42,0,1.48-.08,1.48-.08a3.38,3.38,0,0,1,0,.34c0,.49,0,.68,0,1.17a3.65,3.65,0,0,1,0,.47c0,.49-.08,1-.1,1.47-.05,1.33-.09,2.67-.13,4,0,.78-.07,1.57-.12,2.36a14.52,14.52,0,0,0-.1,1.46,10.9,10.9,0,0,1-.25,2.8,16,16,0,0,1-.82,3.18L29,19c-.14.28-.3.56-.41.85a3.29,3.29,0,0,1-.93,1.26,15.53,15.53,0,0,1-1.64,1,3.77,3.77,0,0,1-1.17.54,1.74,1.74,0,0,1-1.21-.06.69.69,0,0,0-.34-.09,1.77,1.77,0,0,1-1-.36,4.16,4.16,0,0,1-1.69-2,10.5,10.5,0,0,1-.52-1.31,2.27,2.27,0,0,1-.12-.64c0-.62-.08-1.25-.1-1.88,0-.35.08-.71.07-1.06A19.15,19.15,0,0,0,20,12.38a9.23,9.23,0,0,1,0-1.29c0-1.13,0-2.25,0-3.37,0-1.95-.06-3.9-.08-5.85a5.63,5.63,0,0,1,.11-.81c0-.25.05-.37.05-.37l1.18.17c.95.12,3.29.29,3.29.29a2.56,2.56,0,0,0-.05.48c0,1-.07,2-.1,3,0,.06,0,.12,0,.18-.05,1.16-.09,2.32-.13,3.48a20.55,20.55,0,0,0,.21,3.41.37.37,0,0,1,0,.11c.05,1,.07,2,.13,3,0,.66.15,1.32.25,2a1.76,1.76,0,0,0,.18.5c.06.15.14.34.32.28a.55.55,0,0,0,.27-.34,7,7,0,0,0,.27-1.27c.08-.76.1-1.53.16-2.3s.13-1.72.2-2.58c.08-1.11.18-2.23.25-3.34S26.52,2.47,26.5,1.74Z"/><path class="cls-2" d="M176.36.51l.76.17a4.77,4.77,0,0,0,.51.13,3.08,3.08,0,0,1,2,1.34,28.19,28.19,0,0,1,1.64,2.54c.35.65.46,1.46.83,2.2a2.38,2.38,0,0,0-.32.38c-.35.44-.69.89-1.08,1.3s-.93,1.1-1.35,1.5a1.39,1.39,0,0,1-.26-.3,12.75,12.75,0,0,1-1.62-2.48,8.25,8.25,0,0,0-.58-1c-.22-.35-.29-.38-.8-.28-.33.07-.46.2-.52.57a3.34,3.34,0,0,0,.21,1.85c.1.25.17.5.28.74a.84.84,0,0,0,.22.35c.66.48,1.14,1.2,1.93,1.49.1,0,.17.17.26.24.47.38.62.58,1.08.92a2.32,2.32,0,0,1,.57.51c.23.33.47.66.72,1a3.79,3.79,0,0,1,.86,2.35c0,.57,0,1.15,0,1.72a2.08,2.08,0,0,1-.13.71,5,5,0,0,1-1.9,2.36,3.94,3.94,0,0,0-.45.38s-.07.1-.12.13a18.14,18.14,0,0,1-3,1.43,7.11,7.11,0,0,1-1.46,0,1.87,1.87,0,0,1-.35,0c-.68-.27-1.34-.59-2-.82a3.93,3.93,0,0,1-2-1.64c-.33-.48-.67-1-1-1.42l-.26-.35s.47-.56.59-.69a15.65,15.65,0,0,1,1.81-2,5.21,5.21,0,0,0,.53-.75,1.84,1.84,0,0,1,.15.18c.45.64,1.13,1.06,1.57,1.72a2.83,2.83,0,0,0,1.43,1.23c.6.19.93,0,1.14-.61a1.78,1.78,0,0,0,0-1.14,4,4,0,0,1-.16-.59,4.37,4.37,0,0,0-1.78-2.55.92.92,0,0,0-.28-.09,2.86,2.86,0,0,1-.95-.59c-.45-.43-.94-.82-1.4-1.22a2.43,2.43,0,0,1-.7-1.05c-.16-.46-.35-.91-.48-1.38a7.67,7.67,0,0,1-.19-1.26c0-.51,0-1,0-1.53A2.78,2.78,0,0,1,171,4.44a21.35,21.35,0,0,0,1.7-2.19,2.65,2.65,0,0,1,1.46-1.08c.49-.19,1-.38,1.5-.54A3.8,3.8,0,0,1,176.36.51Z"/><path class="cls-2" d="M65.22,22.35a7.92,7.92,0,0,1-1-.06s0-1.2,0-1.31l.21-2.53c0-.07,0-.15,0-.23.05-1.55.09-3.1.14-4.66,0-.56.08-1.13.11-1.7.05-.82.07-1.65.13-2.47s.15-1.6.19-2.4a8.68,8.68,0,0,0,0-1.53,9.45,9.45,0,0,1,0-2c.07-.61,0-1.22,0-1.83s0-.77,0-.77,1.12,0,1.29.05a1.91,1.91,0,0,0,.47,0A38,38,0,0,1,71.44.87v1A6.82,6.82,0,0,1,71.26,3,10.88,10.88,0,0,0,71,5a12,12,0,0,1-.23,1.56c-.08.51-.16,1-.21,1.52-.06.7-.09,1.41-.14,2.11s-.15,1.68-.2,2.52c0,.43,0,.87,0,1.3s.07,1,.09,1.47c0,1.33.08,2.67.14,4a3.67,3.67,0,0,0,.13.88,10.23,10.23,0,0,1,.1,2.07,2.24,2.24,0,0,1-.7,0C69.71,22.45,66.69,22.36,65.22,22.35Z"/></g></g></svg>