<?xml version="1.0" encoding="UTF-8"?><svg xmlns="http://www.w3.org/2000/svg" viewBox="0 0 131.17 134.68"><defs><style>.cls-1{fill:#fff;}.cls-2{fill:#2fc6d1;}.cls-3{fill:#ffcc4d;}.cls-4{fill:#e5403f;}</style></defs><g id="Layer_1"><g><path class="cls-1" d="M114.89,40.02c-.06-.93-.33-1.57-.33-1.57l-.74-.3s-8.18,3.39-31.01,4.27c-8.53,.33-31.4,.41-31.4,.41l-.04,2.8s25.21,.28,33.77-.23c25.72-1.53,29.42-4.47,29.42-4.47l.33-.91Z"/><path class="cls-3" d="M39.07,33.4c-4.03-12.25,.69-21.37,.69-21.37,0,0,9.91,.16,17.66,9.76l-18.35,11.61Z"/><path class="cls-3" d="M27.89,53.17c-9.55-8.67-9.95-18.93-9.95-18.93,0,0,8.7-4.75,20.18-.22l-10.23,19.15Z"/><path class="cls-3" d="M21.52,74.29c-10.29-6.13-12.53-15.4-12.53-15.4,0,0,7.05-5.92,18.32-3.91l-5.79,19.31Z"/><path class="cls-2" d="M49.87,47.4l27.84-.38s11.33-1.73,27.72-1.73c10.52,0,16.87,4.97,16.87,13.66s-5.97,14.18-5.97,14.18c-2.84-2.66-6.03-8.04-6.03-8.04-3.01,6.68-7.33,10.46-7.33,10.46-4.61-4.08-7.86-9.63-7.86-9.63-3.1,5.05-7.27,8.21-7.27,8.21-3.97-2.89-6.74-8.28-6.74-8.28-2.36,4.21-6.32,7.57-6.32,7.57-6.18-3.63-11.17-13.45-11.17-13.45,0,0,.65,6.21,3.62,12.02,2.99,5.85,7.24,8.86,7.24,8.86,0,0,3.52-4.44,7.37-6.61,0,0,3.45,2.52,6.06,7.6,0,0,2.91-3.62,6.72-6.25,0,0,2.94,3.11,4.84,7.03,0,0,3.39-3.29,6.98-5.36,0,0,1.7,8.02-4.81,11.38-2.68,1.38-8.42,3.47-17.92,3.71-7.16,.18-33.5-1.31-33.5-1.31l-.37-43.64Z"/><path class="cls-2" d="M19.28,75.37c8.42-27.86,15.7-55.54,49.3-55.54,18.75,0,23.55,13.72,23.55,13.72l-36.74,8.17,.7,14.62,1.32,30.88,14.73,1.03c-.37,1.17-1.68,5.74-2.66,8.84-1.49,4.72-15.95,5.88-30.64-.61-15.74-6.95-21.44-14.9-19.57-21.11Z"/><g><path class="cls-4" d="M114.56,38.45c-1.3-4.2-6.52-9.26-23.77-9.26-20.93,0-37.74,7.96-37.74,7.96l.39,5.89c28.13,.2,54.61-2.18,61.13-4.58Z"/><path class="cls-4" d="M53.54,44.59l.47,6.91s10.63,5.61,23.63,5.61c4.55,0,8.21-3.18,10.9-6.81,3.21-4.33,5.02-5.02,16.89-5.02,3.04,0,5.71,.43,8,1.23,.72-1.3,1.51-3.22,1.51-5.55,0-.3-.02-.61-.06-.93-6.5,2.48-33.5,5.15-61.35,4.56Z"/></g><path class="cls-4" d="M102.35,15.38h1.78c.46,0,.83,.37,.83,.83v16.73h-3.43V16.2c0-.46,.37-.83,.83-.83Z" transform="translate(-.97 4.61) rotate(-2.55)"/><ellipse class="cls-4" cx="105.98" cy="55.17" rx=".91" ry="2.06" transform="translate(-13.14 45.91) rotate(-23.05)"/><ellipse class="cls-4" cx="113.97" cy="54.47" rx="2.06" ry=".91" transform="translate(25.41 144.54) rotate(-71.03)"/><path class="cls-3" d="M59.84,20.53c3.52-11.16,11.85-14.76,11.85-14.76,8.86,8.91,8.06,19.04,8.06,19.04-8.33-7.05-19.91-4.28-19.91-4.28Z"/><path class="cls-1" d="M57.78,38.43l.37,10.93s-7.61,.56-16.22,0c-8.62-.56-14.62-2.33-14.62-2.33,0,0,1.16-3.04,2.46-5.43,1.53-2.81,3.26-4.77,3.26-4.77,0,0,3.82,1.02,10.78,1.6,6.99,.58,13.97,0,13.97,0Z"/></g></g><g id="Card"><g><g><path class="cls-3" d="M63.97,115.45c-.04-.62-.11-1.23-.12-1.85-.02-1.07-.01-2.15,0-3.22,0-.24,.06-.48,.07-.71,0-.22,.02-.29,.02-.29,0,0-1.48,.09-2.1,.12-.06,0-.12,.03-.18,.06-.23,.11-.46,.08-.7,.05-.31-.04-1.13-.06-1.13-.06,0,0-.83,.98-.96,1.15-.13,.16-.16,.39-.25,.49s-.2,.15-.36,.28c-.1,.08-.28,.3-.39,.45-.22-.19-.44-.39-.65-.6-.58-.59-1.34-1.52-1.96-1.82,0,0-.18,.12-.37,.31-.2,.2-.44,.74-.69,.98-.25,.25-.99,1.22-.99,1.22-.03,.13-.03,.28-.03,.33,0,.32,.03,.4-.08,.7-.04,.11-.02,.25-.02,.38,0,.11,0,.23-.02,.34-.04,.5-.09,1-.14,1.5-.03,.31-.06,.63-.09,.94-.04,.29-.09,.57-.13,.86-.05,.41-.09,.82-.15,1.24-.05,.37-.14,.75-.15,1.12-.02,.74-.07,1.48-.16,2.22-.06,.49-.12,.97-.18,1.46-.04,.32-.09,.65-.12,.97-.03,.25-.11,.53-.03,.75,.09,.25,.02,.47,.02,.7,0,.09,0,.18,0,.27,0,.21,0,.32,0,.32,0,0,.91,0,1.25,0,.24,0,.48-.03,.71-.05,.08,0,.15-.03,.23-.02,.67,.05,1.57,.01,2.24-.05,0,0,.57-.9,.73-1.04,.12-.1,.8-.87,1.14-1.25,.24,.12,.46,.28,.67,.47,.15,.13,.19,.16,.27,.2,.5,.22,1.17,.62,1.53,1.01,.2,.21,.9,.43,.9,.43,0,0,.1-.19,.2-.28,.11-.09,.55-.33,.76-.56,.21-.23,1.1-1.67,1.1-1.67,0,0,.06-.31,.07-.51,.03-.36,.07-.44,.09-.8,.03-.58,.06-1.16,.07-1.74,.03-1.49,.05-2.98,.08-4.47,0-.1,0-.2,0-.3Z"/><path class="cls-3" d="M97.72,122.15c-.36-1.17-.73-2.33-1.08-3.5-.39-1.32-.75-2.65-1.13-3.97-.1-.34-.21-.67-.32-1-.14-.43-.32-.85-.43-1.29-.2-.85-.36-1.7-.54-2.55-.05-.22-.06-.32-.13-.53-.04-.12-.08-.18-.13-.23l-2.06,2.52c-.25,.32-.6,.73-.83,1.07-.26,.38-.55,.8-.76,1.15,0,0-.01,.02-.02,.02-.13-.2-.21-.31-.37-.54-.24-.35-.41-.75-.73-1.04-.06-.06-.11-.15-.13-.23-.07-.2-.19-.36-.35-.5-.2-.18-.36-.4-.47-.65-.06-.13-.13-.26-.22-.36-.19-.21-.39-.4-.52-.67-.05-.1-.35-.32-.35-.32,0,0-1.04,1.46-1.24,1.66s-.82,.86-.82,.86c0,0-.09,.2-.13,.3-.15,.35-.22,.51-.37,.85-.04,.09-.06,.2-.07,.3-.12,.68-.22,1.36-.36,2.03-.14,.67-.18,1.33-.19,2.01,0,.69-.04,1.38-.13,2.06-.12,.89-.32,1.76-.46,2.65-.14,.92-.54,1.58-.67,2.51-.03,.18-.09,.35-.13,.52-.03,.13-.07,.28-.07,.28,0,0,.83,0,1.01-.04,.19-.04,.35-.03,.54,0,.13,.02,.44-.05,.58-.02,.08,.02,.06,.06,.16,.07,.14,.01,.41,.01,.56,0,.16-.01,.33,0,.49-.04,.12-.02,.16-.03,.24-.06,0,0,.25-.26,.53-.53,.28-.27,.59-.68,.75-.88,.16-.19,.78-1.1,.78-1.1,.04-.13,.06-.27,.09-.4,.18,.43,.35,.87,.54,1.34,0,0,.47-.65,.7-.94,.14-.17,.61-.72,.96-1.12,.11,.27,.24,.52,.44,.75,.02,.02,.02,.05,.04,.07,.27,.54,.53,1.09,.82,1.63,.22,.42,.54,1.02,.78,1.43,.09-.02,.13-.02,.29-.07,.21-.05,.42-.07,.63-.1,.22-.04,.45-.06,.66-.12,.3-.08,.6-.19,.92-.2,.2-.01,.39-.1,.58-.16,.1-.03,.15-.04,.15-.04,0,0,.49-.45,.72-.73s1.34-1.79,1.34-1.79c0,0-.07-.3-.09-.36Zm-5.68-10.31s0,0,0,0c0,0,0,0,0-.01,0,0,0,0,0-.01v.02Z"/><path class="cls-3" d="M74.05,114.99c-.01-.22-.06-.45-.1-.67-.04-.22-.12-.44-.13-.67-.01-.32-.17-.6-.26-.9-.06-.19-.18-.37-.22-.56-.07-.32-.19-.6-.47-.81-.08-.06-.13-.16-.19-.24-.17-.23-.33-.46-.52-.68-.37-.43-.8-.75-1.44-.74-.09,0-.19-.03-.28-.04-.47-.08-.93-.18-1.4-.24-.25-.03-.52-.02-.77,.04-.46,.11-.91,.26-1.35,.41-.2,.07-.38,.2-.58,.28-.13,.05-.22,.13-.29,.23h0s-1.17,1.37-1.27,1.6c-.09,.22-.69,.81-.73,.85-.07,.07-.12,.15-.15,.25-.14,.37-.29,.73-.45,1.09-.09,.2-.21,.38-.21,.61,0,.85,.02,1.69,0,2.54-.01,.84-.06,1.69-.08,2.53,0,.24,0,.48,0,.72h0c0,.58,0,1.16,0,1.74,0,.29,.07,.55,.19,.8,.07,.15,.1,.31,.14,.47,.03,.1,.06,.19,.09,.29,.13,.37,.39,.67,.65,.95,.35,.38,.74,.74,1.31,.86,.21,.04,.41,.14,.61,.21,.18,.06,.35,.16,.53,.18,.46,.05,.92,.08,1.38,.09,.31,0,.63-.04,.93-.08,.26-.03,.5-.14,.68-.33,.09-.1,.18-.21,.26-.31h0c.54-.49,1.02-.98,1.18-1.16,.16-.18,1-1.49,1-1.49h0c.49-.61,.87-1.27,1.13-2,.3-.87,.52-1.77,.58-2.69,0-.05,0-.1,.02-.15,.15-.71,.25-1.42,.22-2.14-.01-.28,.01-.56,0-.83Z"/><path class="cls-3" d="M84.66,113.96c0-.12-.06-.25-.06-.37,.03-.56-.1-1.1-.23-1.64-.03-.15-.05-.3-.11-.44-.31-.63-.76-1.12-1.43-1.39-.17-.07-.34-.17-.5-.27-.22-.14-.45-.22-.71-.21-.34,.01-.69,.04-1.02-.01-.48-.08-.96-.05-1.43-.06-.28,0-.55-.05-.83-.06-.29,0-.6-.06-.87,.02-.41,.13-.82,.12-1.23,.12-.27,0-1.04,.08-1.04,.08,0,0-.66,.74-.68,.85-.02,.11-.28,.38-.41,.46s-.23,.26-.34,.39c-.11,.13-.63,.81-.63,.81,0,0-.02,.21,.02,.48,.03,.17,.06,.35,.05,.52-.03,.91,.04,1.81-.05,2.72-.05,.45,.05,.9,.05,1.36-.02,1.92,.07,3.84-.07,5.75-.02,.29,0,.58-.01,.87-.02,.39-.06,1.67-.06,1.67,0,0,.05,0,.26,.02,.18,.02,.35,.01,.53,.01,.47,0,.92-.16,1.37-.01,.35,.11,1.38,.1,1.38,.1,0,0,.4-.65,.59-.78,.05-.03,.19-.18,.35-.37,.19,.28,.39,.57,.58,.85,.07,.1,.14,.22,.14,.22,0,0,.86-.01,1.2-.07,.54-.1,1.11-.06,1.64-.24,.03-.01,.08,0,.11,0,.13-.02,.45-.02,.45-.02,0,0,.4-.63,.53-.73s.86-1.1,1.02-1.24,.51-.55,.51-.55c0,0-.15-.33-.21-.44-.06-.11-.15-.2-.23-.3-.06-.08-.14-.15-.17-.25-.07-.22-.22-.36-.36-.52-.13-.15-.23-.33-.35-.49-.06-.09-.13-.19-.2-.27-.15-.18-.36-.43-.58-.68,.27-.31,.48-.57,.71-.79,1.17-1.12,1.61-2.06,1.61-2.06h-.01c.22-.32,.38-.67,.49-1.05,.17-.64,.26-1.31,.22-1.98Z"/><path class="cls-3" d="M107.19,115.86c0-.07,0-.15-.04-.22-.17-.4-.35-.79-.52-1.19-.21-.51-.52-.98-.57-1.54-.02-.16-.17-.31-.28-.46-.07-.1-.15-.18-.24-.27-.34-.35-.67-.71-1.02-1.06-.38-.37-.91-.54-1.4-.77-.27-.13-.56-.23-.86-.32-.45-.13-.93-.13-1.39-.07-.45,.05-.89,.2-1.19,.53,0,0-.91,.9-1.14,1.11-.23,.21-.92,1.4-.92,1.4-.17,.18-.29,.4-.43,.6-.14,.22-.28,.43-.42,.65-.11,.17-.25,.34-.33,.53-.23,.56-.48,1.11-.62,1.69-.27,1.85,.42,2.98,.44,3.75,.01,.4,0,.81,0,1.21h0c0,.48,0,.96,0,1.44,0,.48,.24,.93,.19,1.42,0,.03,.03,.07,.05,.11,.24,.54,.68,.94,1.14,1.34,.41,.36,.9,.44,1.44,.44,.41,0,.82,0,1.24,0,.15,0,.32-.02,.45-.08,.77-.35,1.52-.72,2.08-1.34,.14-.16,.28-.31,.41-.47h0c.45-.41,.88-.71,1.18-1.03,.3-.32,1.07-1.71,1.07-1.71h0c.26-.34,.5-.69,.68-1.08,.22-.46,.38-.95,.63-1.4,.23-.43,.32-.89,.36-1.35,.05-.62,.02-1.24,.01-1.86Z"/><path class="cls-3" d="M115.23,109.9s-.77,.07-1.05,.08c-.17,0-.35,0-.52,0-.24,0-.89-.08-.89-.08,0,0-.48,.47-.6,.67-.11,.2-.46,.43-.65,.69-.09,.12-.27,.38-.43,.62,.02-.49,.04-.99,.05-1.48,0-.26-.02-.34-.02-.34,0,0-1.89,.04-2.68,.04-.06,0-.36,0-.36,0,0,0-.52,.78-.67,.93s-.59,.82-.74,1.03c-.15,.21-.65,.56-.65,.56,0,0-.01,.07,0,.19,.02,.42-.07,.82-.14,1.23-.07,.39-.06,.8-.09,1.2-.04,.67,.04,1.33,.08,2,.01,.21,.03,.43,.06,.64,.04,.25,.14,.49,.16,.73,.06,.63,.11,1.25,.13,1.88,.02,.52,0,1.04,0,1.55h0c0,.57-.02,1.14,0,1.7,.03,.67,.2,1.27,.8,1.71,.95,.69,1.94,.94,3.08,.51,.63-.23,1.1-.69,1.67-1.01,.05-.03,.1-.08,.13-.13,.16-.22,.32-.44,.48-.67h0c.49-.52,.93-.98,1.39-1.47,.46-.49,.53-.85,.53-.85h0c.1-.14,.2-.28,.3-.42,.04-.06,.06-.14,.09-.21,.06-.15,.09-.32,.16-.46,.26-.46,.27-.97,.28-1.47,.01-.51-.05-1.03-.06-1.55-.01-.63-.01-1.26-.01-1.89,0-1.49-.02-2.98,.09-4.46,.02-.29,.04-.58,.06-.86,0-.11,0-.23,0-.34,0-.16,0-.28,0-.28Z"/><path class="cls-3" d="M47.76,113.09c-.04-.35-.05-.7-.12-1.04-.13-.65-.3-.95-.27-1.62,0-.19-.01-.54-.01-.54,0,0-.67,.06-.9,.06-.62,0-1.23,.1-1.84,.21-.8,.14-1.61,.31-2.43,.27-.73-.03-1.46-.05-2.19-.08-.33,0-.66,0-.99,0-.42,0-1.44,0-1.44,0,0,0-.27,.38-.34,.48-.07,.1-.3,.39-.48,.52-.18,.13-.38,.64-.56,.8-.18,.16-.69,.71-.69,.71,0,0-.02,.28,0,.46q.07,.72,.11,.99c0,.05,.04,.22,.04,.26-.03,.4,.16,.84,.17,1.03,.02,.35,.11,.67,.11,.67,0,0,.53,0,.6,0,.55-.03,2.12,.06,2.12,.06,0,0,0,.12,0,.54,0,.45-.06,.91-.06,1.36-.01,.92,0,1.85,0,2.77h0c0,.75,.02,1.51,0,2.26-.02,.71,.11,1,.12,1.51,.02,.77,.02,.91,.07,1.16,.44-.05,1.79-.08,2.23-.07,.45,.01,.9-.13,1.36-.02,.19,.05,.63-.08,.84-.17,.31-.64,.66-.91,.8-1.12,.14-.21,.19-.42,.33-.51,.14-.09,.92-.89,.92-.89,.03-.74,.02-1.26-.04-2.18,0-.04,0-.41,0-.45,.02-.44,0-.87-.03-1.31-.07-.85-.08-1.71-.08-2.57,0-.04,0-.09,0-.13,.08,0,.16,0,.25-.01,.19-.01,.4-.02,.4-.02,0,0,.49-.36,.58-.63,.07-.2,1.48-1.88,1.48-1.88,0,0-.05-.66-.07-.88Z"/><path class="cls-3" d="M27.06,109.78s-.68,.02-.95,.05c-.57,.07-1.83,.15-1.83,.15,0,0-.39,.72-.5,.9-.11,.18-.33,.57-.56,.84-.08,.09-.22,.21-.38,.33,0,0,0-.02,0-.02,.02-.63,.04-1.26,.06-1.89,0-.16,.03-.31,.03-.31,0,0-1.5-.11-2.11-.18-.17-.02-.76-.11-.76-.11,0,0-.77,1.03-1,1.34-.23,.31-1.06,1.18-1.06,1.18,0,0-.01,.08-.03,.24-.02,.17-.07,.35-.07,.52,.01,1.25,.04,2.5,.05,3.75,0,.72,0,1.44,.01,2.16,0,.28-.03,.56,.01,.83,.1,.6,.04,1.21,.05,1.81,0,.23-.05,.45-.04,.68,0,.4,.03,.81,.06,1.21,0,.14,.03,.28,.08,.41,.1,.28,.2,.57,.34,.84,.26,.51,.53,1.02,1.08,1.31,.2,.1,.37,.25,.62,.23,.07,0,.15,.03,.22,.06,.26,.12,.52,.1,.78,.03,.27-.07,.51-.18,.75-.35,.34-.24,.73-.38,1.05-.66,.08-.07,.16-.15,.23-.23,.59-.6,.89-.98,1.03-1.14,.16-.18,.75-.97,1.03-1.38,0,0,0,0,0,0,.15-.17,.27-.36,.36-.57,.07-.19,.17-.36,.26-.54,.07-.14,.14-.27,.2-.41,.29-.65,.38-1.35,.53-2.04,.12-.58,.19-1.19,.16-1.79-.02-.31,.05-.63,.07-.94,.03-.5,.05-1.01,.07-1.51,.03-.86,.05-1.71,.09-2.57,.01-.31,.04-.63,.06-.94,0-.1,0-.2,0-.3,0-.31,0-.43,.01-.75,0-.11,0-.22,0-.22Z"/><path class="cls-3" d="M53.06,109.65s-2.17-.07-2.93,.06c-.1,.02-.2-.01-.3-.02-.11-.01-.83-.03-.83-.03,0,0-.53,.48-.63,.63-.1,.15-.38,.33-.54,.49-.17,.16-.88,1.39-.88,1.39,0,0,0,.13,0,.49,0,.39,.01,.79-.03,1.17-.05,.43-.05,.85,0,1.28,.04,.32,.02,.66,0,.98-.03,.51-.09,1.03-.12,1.54-.03,.53-.05,1.06-.08,1.58-.02,.36-.06,.73-.07,1.09-.03,.99-.06,1.99-.09,2.98,0,.05,0,.1-.01,.15-.04,.54-.09,1.08-.13,1.62,0,.08,0,.84,0,.84,0,0,.21,.03,.61,.04,.94,0,2.88,.07,3.02,.07,.17,0,.32,0,.45-.03,.16-.33,.47-1.05,.69-1.23,.21-.18,.3-.43,.46-.6,.16-.17,.91-.69,.91-.69-.02-.38,.05-.96-.06-1.33-.05-.18-.08-.37-.09-.56-.03-.86-.06-1.71-.09-2.57-.01-.31-.05-.63-.06-.94,0-.28-.01-.56,0-.83,.03-.54,.09-1.08,.13-1.62,.03-.45,.05-.9,.09-1.36,.03-.33,.08-.65,.13-.97,.05-.34,.14-.67,.15-1,.01-.43,.1-.85,.19-1.27,.05-.23,.11-.47,.12-.7,0-.52,0-.67,0-.67Z"/><path class="cls-3" d="M18.79,116.43c0-.8,0-1.61,0-2.41,0-.22-.04-.44-.05-.66,0-.47-.05-.94,.01-1.4,.09-.64,.11-1.29,.11-1.93,0-.1-.04-.2-.05-.3-.02-.17-.02-.3-.02-.3,0,0-1.25,.15-1.75,.16-.41,0-.82,.13-1.23,.12-.57,0-1.92,.13-1.92,.13,0,0-.32,.59-.61,.85s-.49,.64-.87,1.02-.58,.65-.58,.65c0,0,0,.1,0,.25,0,.44-.01,.88,0,1.32,0,.27,.05,.54,.07,.81,.05,.59,.1,1.18,.15,1.77,.02,.21,.05,.42,.07,.63-.92,0-2.01,.02-2.77,.02,0,0-1.33,1.58-2.06,2.52-.04,.09-.03,.24-.03,.38,0,.04,0,.08,0,.12-.04,1.06,.06,2.12,.17,3.17,.02,.23,.03,.49,.21,.69,.29,.32,.51,.71,.9,.92,.11,.06,.19,.17,.26,.28,.24,.37,.61,.58,.98,.75,.48,.22,1,.36,1.5,.53,.15,.05,.31,.09,.48,.1,.7,.06,1.38-.07,2.07-.19,.44-.08,.84-.24,1.15-.61,.25-.29,.41-.48,.54-.64h0s.81-.83,1-1.06c.19-.23,.91-1.28,.91-1.28h0c.35-.41,.44-.59,.8-1.35,.03-.06,.05-.12,.08-.17,.21-.41,.31-.84,.31-1.3,0-.33,.03-.67,.06-1,.02-.2,.06-.41,.08-.61,.03-.27,.04-.54,.06-.81,0-.08,0-.16,0-.23-.02-.31-.05-.62-.05-.93Z"/><path class="cls-3" d="M123.23,117.84c-.16-.2-.31-.41-.46-.62-.1-.14-.23-.23-.37-.33-.29-.21-.39-.34-.67-.57,.02-.02,.03-.04,.05-.06,.06-.07,.14-.18,.21-.24l1.39-1.7c.1-.12,.21-.25,.31-.37l.36-.44c-.24-.47-.31-.99-.53-1.41-.31-.57-.67-1.11-1.05-1.63-.32-.45-.74-.78-1.31-.86-.11-.02-.22-.06-.33-.09-.17-.04-.34-.07-.49-.1-.18,.03-.34,.03-.48,.07-.32,.1-.64,.23-.96,.35-.21,.08-.41,.18-.59,.31h0s-.02,.01-.05,.04c-.05,.04-.1,.09-.15,.14-.27,.25-.73,.69-.92,.89-.26,.3-.79,1.05-1.15,1.62h0c-.05,.06-.11,.12-.15,.2-.3,.53-.73,.93-1.08,1.4-.24,.32-.4,.66-.41,1.07,0,.33-.02,.66,0,.98,.02,.27,.05,.55,.12,.81,.08,.3,.2,.59,.31,.89,.09,.26,.24,.49,.44,.67,.3,.26,.61,.51,.9,.78,.1,.09,.2,.17,.31,.23-.16,.2-.32,.39-.49,.59-.08,.09-.38,.44-.38,.44l-.18,.3s-.23,.39-.34,.48c-.45,.37-.78,.85-1.16,1.29-.08,.09-.38,.44-.38,.44,0,0,.06,.09,.17,.22,.22,.3,.44,.6,.66,.91,.33,.47,.71,.87,1.27,1.05,.44,.15,.86,.35,1.3,.52,.07,.03,.15,.01,.22,.03,.31,.06,.62,.02,.94,.02,.15,0,1.54-.66,1.95-.92,.03-.02,.05-.06,.08-.08,.09-.08,.18-.18,.29-.24,.21-.13,.39-.29,.55-.47v.02c.52-.45,1.35-1.29,1.74-1.75,.39-.46,.64-1.19,.64-1.19h0c.13-.2,.25-.42,.36-.64,.06-.14,.08-.3,.09-.46,.01-.37,.01-.73,0-1.1-.02-.56-.19-1.07-.55-1.51Z"/><path class="cls-3" d="M36.92,113.5c-.02-.21-.05-.42-.08-.64-.07-.55-.19-1.08-.61-1.49-.41-.41-.85-.77-1.32-1.12-.35-.25-.69-.48-1.09-.63-.21-.08-.39-.14-.61-.14-.19,0-.38,0-.61,0-.39,.01-.84-.05-1.26,.13-.03,.01-.07,.01-.11,.02-.56,.07-1.03,.3-1.45,.65h0s-.04,.03-.09,.08c-.06,.06-.13,.11-.19,.17-.03,.03-.05,.06-.07,.09-.28,.28-.65,.65-.77,.81-.2,.25-.65,.68-1.27,1.69-.04,.05-.08,.11-.11,.17-.32,.7-.45,1.45-.55,2.19-.1,.8-.02,1.6,.42,2.33,.15,.25,.32,.48,.52,.68,.26,.26,.57,.46,.89,.63-.12,.09-.25,.19-.39,.31-.06,.05-.39,.29-.39,.29,0,0-1.16,1.29-1.28,1.52-.12,.23-.77,.99-.77,.99,0,0,.7,1.62,.97,2.03,.17,.25,.31,.54,.53,.73,.36,.33,.76,.63,1.18,.88,.3,.17,.65,.3,.99,.33,.53,.04,1.08,.12,1.61-.1,.08-.03,.17-.02,.26-.03,.09-.01,.18,0,.26-.04,.34-.17,.67-.34,.99-.54,.15-.09,.24-.27,.39-.35,.41-.23,.68-.59,.99-.92,.59-.51,1.03-.93,1.36-1.32s.86-1.39,.86-1.39h-.01c.1-.12,.19-.25,.26-.39,.31-.64,.44-1.3,.42-2.01-.03-.73-.22-1.39-.58-2.04-.28-.49-.64-.88-1.06-1.21l1.79-2.19s.01-.06,0-.19Z"/></g><g><path class="cls-4" d="M59.9,112.09c0-.38,0-.76,0-1.14-.01-.33-.05-.65-.07-.98,0-.08,0-.15,0-.23,0-.12,0-.21,0-.21,0,0,.82,.03,1.13,.06,.24,.03,.47,.06,.7-.05,.06-.03,.12-.05,.18-.06,.62-.03,2.1-.12,2.1-.12,0,0,0,.07-.02,.29,0,.24-.07,.48-.07,.71,0,1.07-.02,2.15,0,3.22,.01,.62,.08,1.23,.12,1.85,0,.1,0,.2,0,.3-.02,1.49-.05,2.98-.08,4.47-.01,.58-.04,1.16-.07,1.74-.02,.36-.06,.44-.09,.8-.02,.2-.07,.51-.07,.51,0,0-.7-.22-.9-.43-.37-.39-1.04-.79-1.53-1.01-.09-.04-.13-.07-.27-.2-.35-.32-.74-.56-1.21-.67-.24-.05-.21-.18-.37-.37-.07-.09-.25-.19-.32-.25-.09-.07-.22-.11-.28-.23-.02-.03-.18-.17-.18-.17,0,0-.02,.19-.03,.23-.02,.06-.02,.12-.02,.19,0,.19,0,.38-.01,.57-.02,.71-.04,1.41-.07,2.12q0,.25-.04,.41c-.66,.06-1.56,.1-2.24,.05-.07,0-.15,.01-.23,.02-.24,.02-.48,.05-.71,.05-.34,0-1.25,0-1.25,0,0,0,0-.1,0-.32,0-.09,0-.18,0-.27,0-.23,.06-.45-.02-.7-.08-.22,0-.5,.03-.75,.03-.33,.08-.65,.12-.97,.06-.49,.12-.97,.18-1.46,.09-.74,.14-1.48,.16-2.22,0-.37,.1-.75,.15-1.12,.05-.41,.09-.82,.15-1.24,.04-.29,.09-.57,.13-.86,.04-.31,.07-.63,.09-.94,.05-.5,.09-1,.14-1.5,0-.11,.01-.23,.02-.34,0-.13-.02-.26,.02-.38,.11-.3,.08-.38,.08-.7,0-.05,0-.2,.03-.33,.62,.3,1.38,1.23,1.96,1.82,.39,.39,.83,.74,1.24,1.11,.18,.16,.34,.34,.51,.5,.23,.23,.46,.46,.69,.69,.03,.03,.23,.19,.23,.19,0,0-.02-.22-.01-.27,.02-.09,.01-.18,.01-.26,0-.39,0-.78,0-1.17h0Z"/><path class="cls-4" d="M90.86,121.38c-.26-.65-.48-1.25-.75-1.83-.2-.43-.34-.89-.64-1.27-.03-.04-.11-.2-.14-.23-.04,.05-.06,.22-.07,.27-.06,.26-.11,.53-.17,.8-.11,.55-.23,1.09-.34,1.64-.12,.6-.3,.9-.43,1.5-.05,.24-.08,.48-.15,.71-.07,.03-.11,.04-.24,.06-.16,.03-.33,.02-.49,.04-.15,.01-.42,.01-.56,0-.1-.01-.08-.05-.16-.07-.14-.03-.45,.04-.58,.02-.19-.03-.35-.04-.54,0-.18,.04-1.01,.04-1.01,.04,0,0,.04-.15,.07-.28,.04-.18,.11-.35,.13-.52,.13-.92,.52-1.58,.67-2.51,.14-.88,.34-1.76,.46-2.65,.09-.68,.12-1.37,.13-2.06,0-.68,.05-1.35,.19-2.01,.14-.67,.24-1.35,.36-2.03,.02-.1,.03-.21,.07-.3,.14-.35,.22-.51,.37-.85,.04-.09,.13-.3,.13-.3,0,0,.31,.22,.35,.32,.13,.26,.33,.46,.52,.67,.09,.1,.16,.23,.22,.36,.11,.26,.26,.47,.47,.65,.16,.14,.28,.3,.35,.5,.03,.08,.07,.17,.13,.23,.32,.29,.49,.69,.73,1.04,.18,.26,.25,.37,.43,.63,.06,.09,.17,.39,.24,.49,.06-.08,.23-.44,.29-.53,.35-.57,.62-1.2,.97-1.77,.08-.13,.15-.27,.24-.4,.09-.14,.15-.31,.27-.42,.35-.32,.5-.77,.76-1.15,.23-.34,.58-.74,.83-1.07,.04,.05,.09,.11,.13,.23,.06,.21,.08,.31,.13,.53,.18,.85,.34,1.71,.54,2.55,.11,.44,.29,.86,.43,1.29,.11,.33,.22,.66,.32,1,.38,1.32,.74,2.65,1.13,3.97,.35,1.17,.72,2.33,1.08,3.5,.02,.06,.09,.36,.09,.36,0,0-.06,.01-.15,.04-.19,.06-.39,.15-.58,.16-.32,.02-.62,.12-.92,.2-.22,.06-.44,.09-.66,.12-.21,.04-.43,.05-.63,.1-.16,.04-.2,.04-.29,.07-.24-.41-.55-1.01-.78-1.43-.29-.53-.55-1.08-.82-1.63-.01-.02-.02-.05-.04-.07-.34-.4-.5-.89-.67-1.39-.1-.28-.24-.54-.36-.81-.02-.04-.1-.21-.13-.24-.04,.04-.07,.2-.09,.25-.12,.45-.25,.9-.35,1.36-.15,.63-.27,1.27-.41,1.9-.01,.06-.04,.12-.08,.24Z"/><path class="cls-4" d="M65.2,118.06c0-.24,0-.48,0-.72,.03-.84,.07-1.69,.08-2.53,.01-.85,0-1.69,0-2.54,0-.23,.12-.41,.21-.61,.16-.36,.3-.73,.45-1.09,.07-.19,.19-.32,.39-.41,.2-.08,.37-.21,.58-.28,.44-.15,.89-.3,1.35-.41,.24-.06,.52-.07,.77-.04,.47,.06,.94,.16,1.4,.24,.09,.02,.19,.05,.28,.04,.64-.02,1.07,.31,1.44,.74,.19,.22,.34,.45,.52,.68,.06,.08,.11,.18,.19,.24,.28,.21,.4,.5,.47,.81,.05,.19,.16,.37,.22,.56,.09,.3,.25,.58,.26,.9,0,.22,.09,.44,.13,.67,.04,.22,.09,.44,.1,.67,.02,.28,0,.56,0,.83,.03,.72-.07,1.43-.22,2.14-.01,.05-.02,.1-.02,.15-.06,.92-.28,1.82-.58,2.69-.32,.9-.83,1.72-1.51,2.44-.18,.19-.41,.29-.68,.33-.31,.04-.62,.08-.93,.08-.46,0-.92-.04-1.38-.09-.18-.02-.36-.11-.53-.17-.2-.07-.4-.17-.61-.21-.57-.11-.97-.47-1.31-.86-.26-.28-.52-.58-.65-.95-.03-.09-.06-.19-.09-.29-.05-.16-.07-.32-.14-.47-.12-.26-.2-.52-.19-.8,.01-.58,0-1.16,0-1.74,0,0,0,0,0,0Z"/><path class="cls-4" d="M78.68,122.83c0,.24,0,.37,0,.37,0,0-1.03,.01-1.38-.1-.45-.14-.9,0-1.37,.01-.18,0-.35,0-.53-.01-.21-.02-.26-.02-.26-.02,0,0,.05-1.28,.06-1.67,.01-.29,0-.58,.01-.87,.14-1.92,.05-3.83,.07-5.75,0-.45-.1-.91-.05-1.36,.09-.91,.03-1.81,.05-2.72,0-.17-.03-.35-.05-.52-.04-.26-.02-.48-.02-.48,0,0,.77-.08,1.04-.08,.41,0,.82,0,1.23-.12,.27-.08,.58-.03,.87-.02,.28,0,.55,.05,.83,.06,.48,.01,.95-.02,1.43,.06,.33,.06,.68,.02,1.02,.01,.27-.01,.49,.07,.71,.21,.16,.1,.32,.2,.5,.27,.67,.27,1.12,.76,1.43,1.39,.06,.13,.08,.29,.11,.44,.13,.54,.26,1.08,.23,1.64,0,.12,.05,.25,.06,.37,.04,.67-.04,1.34-.22,1.98-.18,.65-.51,1.22-1.03,1.68-.24,.22-.44,.48-.69,.69-.37,.33-.8,.56-1.27,.72-.26,.08-.29,.1-.37,.14,.3,.36,.85,.99,1.14,1.35,.07,.09,.13,.18,.2,.27,.12,.16,.22,.34,.35,.49,.14,.16,.29,.31,.36,.52,.03,.09,.11,.17,.17,.25,.08,.1,.17,.19,.23,.3,.06,.12,.21,.44,.21,.44,0,0-.32,0-.45,.02-.04,0-.08,0-.11,0-.53,.18-1.09,.14-1.64,.24-.34,.06-1.2,.07-1.2,.07,0,0-.07-.12-.14-.22-.3-.43-.59-.88-.9-1.3-.13-.18-.43-.6-.59-.76-.03,.21,0,.72-.02,.93-.02,.19,0,.84-.01,1.05Zm.46-7.57c0,.26,0,.34,0,.34,0,0,.85,0,1.14,.03,.06,0,.13,.01,.19,0,.38-.1,.78-.05,1.14-.22,.33-.15,.67-.27,1-.41,.02,0,.04-.03,.06-.05,.41-.46,.58-.74,.4-1.36-.03-.12-.2-.46-.32-.5-.31-.09-.43-.26-.77-.29-.36-.04-.71-.15-1.06-.23-.12-.03-.25-.06-.37-.05-.35,0-.69-.05-1.03,.06-.08,.02-.29,0-.29,0,0,0,0,.19-.01,.27-.03,.65-.08,2.26-.08,2.42Z"/><path class="cls-4" d="M98.34,118.92c0-.4,0-.81,0-1.21-.02-.77-.71-1.9-.44-3.75,.13-.58,.39-1.13,.62-1.69,.08-.19,.22-.35,.33-.53,.14-.22,.28-.44,.42-.65,.14-.2,.26-.42,.43-.6,.3-.33,.74-.47,1.19-.53,.46-.05,.94-.06,1.39,.07,.29,.08,.59,.19,.86,.32,.49,.23,1.02,.4,1.4,.77,.35,.34,.68,.7,1.02,1.06,.08,.09,.17,.17,.24,.27,.1,.15,.26,.3,.28,.46,.06,.56,.37,1.03,.57,1.54,.16,.4,.35,.79,.52,1.19,.03,.07,.04,.15,.04,.22,0,.62,.04,1.24-.01,1.86-.04,.46-.13,.92-.36,1.35-.24,.45-.41,.93-.63,1.4-.31,.66-.77,1.23-1.27,1.78-.55,.62-1.3,1-2.08,1.34-.13,.06-.3,.07-.45,.08-.41,0-.82,0-1.24,0-.54,0-1.02-.08-1.44-.44-.46-.4-.9-.8-1.14-1.34-.02-.04-.05-.07-.05-.11,.04-.49-.19-.94-.19-1.42,0-.48,0-.96,0-1.44h0Z"/><path class="cls-4" d="M32.6,109.49c.23,0,.42,0,.61,0,.22,0,.4,.06,.61,.14,.41,.15,.75,.38,1.09,.63,.47,.34,.91,.71,1.32,1.12,.42,.41,.53,.94,.61,1.49,.03,.21,.05,.42,.08,.64,.01,.13,0,.19,0,.19,0,0-.96,.25-1.35,.36-.37,.11-1.43,.46-1.43,.46,0,0-.04-.12-.12-.33-.14-.39-.3-.77-.37-1.19-.05-.36-.19-.72-.52-.97-.39-.29-.87,.03-.91,.41-.05,.46,.02,.91,.13,1.35,.01,.06,.22,.39,.26,.43,.36,.29,.54,.32,.91,.6,.35,.27,.73,.49,1.1,.73,.63,.4,1.17,.89,1.56,1.56,.37,.64,.56,1.31,.58,2.04,.03,.71-.1,1.38-.42,2.01-.11,.22-.25,.4-.41,.58-.31,.33-.58,.69-.99,.92-.15,.08-.25,.26-.39,.35-.32,.2-.66,.37-.99,.54-.07,.04-.17,.03-.26,.04-.09,.01-.18,0-.26,.03-.53,.22-1.08,.15-1.61,.1-.34-.03-.7-.16-.99-.33-.42-.25-.82-.55-1.18-.88-.22-.2-.36-.48-.53-.73-.27-.41-.97-2.03-.97-2.03,0,0,.33-.24,.39-.29,.66-.56,1.12-.83,1.93-1.12,.15-.05,.58-.4,.58-.4,0,0,.02,.06,.1,.19,.01,.02,.03,.04,.03,.07,.13,.5,.46,.89,.71,1.33,.1,.18,.47,.78,.66,.87,.24,.11,.34,.1,.48-.12,.34-.49,.14-1.47-.13-2-.13-.26-.28-.53-.48-.72-.25-.24-.47-.5-.82-.64-.56-.21-1.08-.5-1.51-.92-.2-.2-.37-.43-.52-.68-.44-.73-.52-1.53-.42-2.33,.09-.74,.23-1.49,.55-2.19,.04-.09,.1-.18,.17-.25,.48-.49,1.05-.81,1.74-.91,.04,0,.08,0,.11-.02,.42-.19,.87-.12,1.26-.13Z"/><path class="cls-4" d="M14.27,118.52c0-.6,0-1.19,0-1.79,0-.27,.04-.54,.04-.81,0-.23-.04-.46-.06-.69-.04-.41-.1-.82-.14-1.23-.06-.59-.1-1.18-.15-1.77-.02-.27-.06-.54-.07-.81-.01-.44,0-.88,0-1.32,0-.15,0-.25,0-.25,0,0,1.35-.14,1.92-.13,.41,0,.82-.12,1.23-.12,.5,0,1.75-.16,1.75-.16,0,0,0,.12,.02,.3,.01,.1,.05,.2,.05,.3,0,.65-.02,1.29-.11,1.93-.06,.46-.02,.93-.01,1.4,0,.22,.04,.44,.05,.66,0,.8,0,1.61,0,2.41,0,.31,.04,.62,.05,.93,0,.08,0,.16,0,.23-.02,.27-.04,.54-.06,.81-.02,.2-.06,.41-.08,.61-.03,.33-.06,.67-.06,1,0,.47-.1,.9-.31,1.3-.03,.06-.06,.12-.08,.17-.47,.99-.49,.98-1.2,1.81-.32,.37-.71,.53-1.15,.61-.68,.12-1.37,.25-2.07,.19-.16-.01-.32-.05-.48-.1-.5-.17-1.02-.31-1.5-.53-.37-.17-.74-.38-.98-.75-.07-.11-.15-.22-.26-.28-.4-.21-.61-.6-.9-.92-.18-.2-.19-.45-.21-.69-.1-1.05-.21-2.11-.17-3.17,0-.04,0-.08,0-.12,0-.14,0-.29,.03-.38,1,0,2.56-.03,3.56-.02,.02,.08,.01,.49,.02,.79,.02,.61,.05,.78,.09,1.39,.03,.4,.09,.79,.15,1.19,.03,.19,.13,.33,.24,.47,.15,.2,.34,.12,.52,.15,.02,0,.11-.02,.14-.09,.11-.24,.2-.39,.19-.69-.02-.61,0-1.22,0-1.83h.01Z"/><path class="cls-4" d="M108.26,119.52c0-.52,.02-1.04,0-1.55-.03-.63-.07-1.26-.13-1.88-.02-.25-.12-.49-.16-.73-.04-.21-.05-.42-.06-.64-.04-.67-.12-1.33-.08-2,.03-.4,.02-.81,.09-1.2,.07-.41,.17-.81,.14-1.23,0-.12,0-.19,0-.19,0,0,.3,0,.36,0,.8,0,2.68-.04,2.68-.04,0,0,.03,.09,.02,.34,0,.52-.03,1.03-.05,1.55,0,.05,0,.1,0,.15-.03,.88-.05,1.76-.08,2.65,0,.23-.05,.45-.06,.67,0,.19-.03,.38,0,.57,.11,.62,.04,1.23,.05,1.85,0,.38-.04,.75-.07,1.13-.02,.24,.08,.45,.22,.63,.1,.13,.2,.14,.32,.02,.21-.22,.24-.49,.21-.78-.02-.19-.04-.38-.06-.56-.05-.65,.04-1.28,.17-1.91,.03-.16,.06-.32,.06-.49,0-.87,0-1.74,0-2.61,0-.38,.06-.74,.24-1.09,.18-.37,.3-.77,.43-1.17,.09-.29,.17-.58,.23-.87,.03-.13,.04-.22,.04-.22,0,0,.65,.08,.89,.08,.17,0,.35,0,.52,0,.28,0,1.05-.08,1.05-.08,0,0,0,.12,0,.28,0,.11,0,.23,0,.34-.02,.29-.04,.58-.06,.86-.1,1.49-.09,2.97-.09,4.46,0,.63,0,1.26,.01,1.89,.01,.52,.07,1.03,.06,1.55-.01,.5-.03,1.01-.28,1.47-.08,.14-.11,.31-.16,.46-.03,.07-.05,.15-.09,.21-.21,.3-.43,.59-.64,.89-.04,.05-.08,.1-.13,.13-.57,.31-1.04,.77-1.67,1.01-1.14,.42-2.13,.18-3.08-.51-.6-.44-.77-1.03-.8-1.71-.02-.57,0-1.14,0-1.7,0,0,0,0,0,0Z"/><path class="cls-4" d="M40.66,118.48c0-.92,0-1.85,0-2.77,0-.45,.05-.91,.06-1.36,0-.42,0-.54,0-.54,0,0-1.57-.09-2.12-.06-.06,0-.6,0-.6,0,0,0-.1-.33-.11-.67,0-.19-.19-.63-.17-1.03,0-.04-.03-.21-.04-.26q-.03-.27-.11-.99c-.02-.18,0-.46,0-.46,0,0,1.02,0,1.44,0,.33,0,.66,0,.99,0,.73,.02,1.46,.04,2.19,.08,.82,.04,1.63-.13,2.43-.27,.61-.11,1.22-.2,1.84-.21,.23,0,.9-.06,.9-.06,0,0,.02,.35,.01,.54-.03,.67,.14,.97,.27,1.62,.07,.34,.08,.69,.12,1.04,.02,.22,.07,.88,.07,.88,0,0-.21,0-.4,.02-.49,.03-.79,.04-1.28,.07-.24,.02-.95,.09-.95,.09,0,0,0,.11-.02,.32,0,.05,0,.1,0,.16-.02,.67-.06,1.35-.06,2.02,0,.86,.01,1.71,.08,2.57,.04,.44,.05,.87,.03,1.31,0,.04,0,.41,0,.45,.06,.92,.07,1.44,.04,2.18-.21,.09-.65,.21-.84,.17-.46-.11-.9,.04-1.36,.02-.44-.01-1.79,.02-2.23,.07-.06-.25-.06-.4-.07-1.16-.01-.51-.15-.8-.12-1.51,.02-.75,0-1.51,0-2.26h0Z"/><path class="cls-4" d="M24.25,110.2c0-.12,.03-.22,.03-.22,0,0,1.26-.08,1.83-.15,.27-.03,.95-.05,.95-.05,0,0,0,.11,0,.22,0,.31-.02,.43-.01,.75,0,.1,0,.2,0,.3-.02,.31-.05,.63-.06,.94-.03,.86-.06,1.71-.09,2.57-.02,.5-.04,1.01-.07,1.51-.02,.31-.09,.63-.07,.94,.03,.61-.03,1.21-.16,1.79-.15,.68-.24,1.39-.53,2.04-.06,.14-.13,.27-.2,.41-.09,.18-.19,.36-.26,.54-.13,.32-.33,.58-.59,.81-.32,.28-.71,.42-1.05,.66-.24,.16-.48,.27-.75,.35-.26,.07-.52,.09-.78-.03-.07-.03-.15-.07-.22-.06-.25,.02-.42-.12-.62-.23-.56-.29-.82-.79-1.08-1.31-.14-.27-.24-.56-.34-.84-.05-.13-.07-.27-.08-.41-.03-.4-.05-.81-.06-1.21,0-.23,.05-.45,.04-.68,0-.6,.05-1.21-.05-1.81-.04-.27-.01-.55-.01-.83,0-.72,0-1.44-.01-2.16-.02-1.25-.04-2.5-.05-3.75,0-.17,.04-.35,.07-.52,.02-.16,.03-.24,.03-.24,0,0,.58,.09,.76,.11,.61,.08,2.11,.18,2.11,.18,0,0-.03,.15-.03,.31-.02,.63-.04,1.26-.06,1.89,0,.04,0,.08,0,.11-.03,.74-.06,1.49-.08,2.23-.03,.73,.04,1.46,.14,2.19,0,.02,0,.05,0,.08,.03,.63,.04,1.26,.08,1.89,.03,.43,.09,.85,.16,1.27,.02,.11,.07,.21,.12,.32,.04,.09,.1,.22,.21,.18,.08-.02,.15-.13,.17-.22,.07-.27,.15-.54,.18-.81,.05-.49,.06-.98,.1-1.47,.04-.55,.09-1.1,.13-1.66,.05-.72,.12-1.43,.16-2.15,.05-.79,.07-3.31,.06-3.78Z"/><path class="cls-4" d="M120.33,109.42c.14,.03,.31,.06,.49,.1,.11,.03,.22,.07,.33,.09,.56,.08,.98,.41,1.31,.86,.38,.52,.74,1.06,1.05,1.63,.23,.42,.3,.93,.53,1.41-.07,.06-.15,.17-.21,.24-.22,.29-.44,.57-.69,.83-.25,.27-.6,.71-.87,.97q-.08-.07-.17-.2c-.38-.51-.79-.99-1.04-1.59-.09-.22-.25-.42-.38-.63-.14-.23-.18-.25-.51-.18-.21,.04-.29,.12-.33,.36-.07,.41-.03,.81,.13,1.19,.07,.15,.11,.32,.18,.47,.04,.08,.08,.17,.15,.22,.42,.31,.73,.77,1.23,.96,.07,.02,.11,.11,.17,.15,.3,.24,.4,.37,.69,.59,.14,.1,.27,.19,.37,.33,.15,.21,.3,.42,.46,.62,.36,.44,.53,.95,.55,1.51,.01,.37,.01,.73,0,1.1,0,.15-.02,.32-.09,.46-.28,.61-.63,1.16-1.21,1.51-.11,.06-.19,.16-.29,.24-.03,.03-.05,.06-.08,.08-.41,.26-1.8,.92-1.95,.92-.31,0-.63,.04-.94-.02-.07-.02-.16,0-.22-.03-.43-.17-.86-.38-1.3-.52-.56-.19-.94-.58-1.27-1.05-.21-.31-.43-.61-.66-.91-.1-.14-.17-.22-.17-.22,0,0,.3-.36,.38-.44,.38-.44,.71-.92,1.16-1.29,.11-.09,.34-.48,.34-.48,0,0,.04,.04,.1,.12,.29,.41,.72,.67,1.01,1.1,.23,.34,.51,.65,.92,.78,.38,.12,.6,0,.73-.39,.08-.24,.1-.48,.01-.73-.04-.12-.08-.25-.1-.38-.14-.73-.61-1.21-1.14-1.64-.05-.04-.12-.04-.18-.06-.23-.09-.43-.21-.61-.38-.29-.27-.6-.52-.9-.78-.21-.18-.35-.41-.44-.67-.1-.3-.23-.58-.31-.89-.07-.26-.11-.54-.12-.81-.02-.33,0-.65,0-.98,0-.41,.16-.75,.41-1.07,.36-.47,.79-.88,1.08-1.4,.21-.37,.57-.54,.94-.69,.32-.13,.64-.25,.96-.35,.14-.05,.3-.05,.48-.07Z"/><path class="cls-4" d="M49.07,123.42c-.4,0-.61-.04-.61-.04,0,0,0-.77,0-.84,.04-.54,.09-1.08,.13-1.62,0-.05,.01-.1,.01-.15,.03-.99,.05-1.99,.09-2.98,.01-.36,.05-.73,.07-1.09,.03-.53,.04-1.06,.08-1.58,.03-.51,.09-1.03,.12-1.54,.02-.33,.03-.66,0-.98-.05-.43-.05-.85,0-1.28,.04-.39,.02-.78,.03-1.17,0-.36,0-.49,0-.49,0,0,.71,.02,.83,.03,.1,.01,.2,.04,.3,.02,.77-.13,2.93-.06,2.93-.06,0,0,0,.15,0,.67-.01,.24-.07,.47-.12,.7-.09,.42-.18,.83-.19,1.27,0,.34-.1,.67-.15,1-.05,.32-.1,.65-.13,.97-.04,.45-.06,.9-.09,1.36-.04,.54-.09,1.08-.13,1.62-.02,.28-.01,.56,0,.83,.01,.31,.05,.63,.06,.94,.03,.86,.05,1.71,.09,2.57,0,.19,.03,.38,.09,.56,.11,.37,.04,.95,.06,1.33-.13,.03-.28,.04-.45,.03-.14,0-2.08-.06-3.02-.07Z"/></g></g></g></svg>